<svg width="61" height="24" viewBox="0 0 61 24" fill="none" xmlns="http://www.w3.org/2000/svg">
<path d="M36.3222 6.37864C34.7911 4.84755 32.9734 3.63299 30.973 2.80437C28.9725 1.97576 26.8285 1.54928 24.6632 1.54928C22.4979 1.54928 20.3539 1.97576 18.3534 2.80437C16.3529 3.63299 14.5353 4.84755 13.0042 6.37864L24.6632 18.0376L36.3222 6.37864Z" fill="#1D4ED8" fill-opacity="0.3"/>
<path d="M24.6778 18.0544C26.2089 19.5855 28.0266 20.8 30.027 21.6286C32.0275 22.4572 34.1716 22.8837 36.3369 22.8837C38.5021 22.8837 40.6464 22.4572 42.6468 21.6286C44.6472 20.8 46.465 19.5855 47.996 18.0544L36.3369 6.39539L24.6778 18.0544Z" fill="#1D4ED8" fill-opacity="0.15"/>
<path d="M24.649 18.0519C23.1179 19.5829 21.3002 20.7975 19.2998 21.6261C17.2993 22.4547 15.1553 22.8812 12.99 22.8812C10.8247 22.8812 8.68064 22.4547 6.68016 21.6261C4.67973 20.7975 2.86204 19.5829 1.33095 18.0519L12.99 6.39282L24.649 18.0519Z" fill="#1D4ED8" fill-opacity="0.15"/>
<path d="M36.351 6.38121C37.8819 4.85012 39.6998 3.63561 41.7002 2.807C43.7006 1.97838 45.8449 1.55191 48.0099 1.55191C50.1755 1.55191 52.3193 1.97838 54.3197 2.807C56.3201 3.63561 58.1379 4.85012 59.6689 6.38121L48.0099 18.0402L36.351 6.38121Z" fill="#1D4ED8"/>
</svg>
